<mxfile host="Electron" agent="Mozilla/5.0 (Windows NT 10.0; Win64; x64) AppleWebKit/537.36 (KHTML, like Gecko) draw.io/27.0.9 Chrome/134.0.6998.205 Electron/35.4.0 Safari/537.36" version="27.0.9">
  <diagram name="Page-1" id="dc2bdmG0TsHTd2rDjhFI">
    <mxGraphModel dx="657" dy="569" grid="0" gridSize="10" guides="1" tooltips="1" connect="1" arrows="1" fold="1" page="0" pageScale="1" pageWidth="850" pageHeight="1100" background="#FFFF33" math="0" shadow="0">
      <root>
        <mxCell id="0" />
        <mxCell id="1" parent="0" />
        <mxCell id="m9l3W2KCBE9sAPWuqWU2-20" value="Guest" style="shape=actor;whiteSpace=wrap;html=1;fillColor=#f5f5f5;strokeColor=#666666;" vertex="1" parent="1">
          <mxGeometry x="-36" y="80" width="60" height="80" as="geometry" />
        </mxCell>
        <mxCell id="m9l3W2KCBE9sAPWuqWU2-21" value="Host" style="shape=actor;whiteSpace=wrap;html=1;fillColor=#f5f5f5;strokeColor=#666666;" vertex="1" parent="1">
          <mxGeometry x="-36" y="245" width="60" height="80" as="geometry" />
        </mxCell>
        <mxCell id="m9l3W2KCBE9sAPWuqWU2-22" value="Admin" style="shape=actor;whiteSpace=wrap;html=1;fillColor=#f5f5f5;strokeColor=#666666;" vertex="1" parent="1">
          <mxGeometry x="-36" y="410" width="60" height="80" as="geometry" />
        </mxCell>
        <mxCell id="m9l3W2KCBE9sAPWuqWU2-23" value="Database" style="shape=cylinder;whiteSpace=wrap;html=1;fillColor=#d5e8d4;strokeColor=#82b366;" vertex="1" parent="1">
          <mxGeometry x="760" y="270" width="100" height="80" as="geometry" />
        </mxCell>
        <mxCell id="m9l3W2KCBE9sAPWuqWU2-24" value="User Management" style="rounded=1;whiteSpace=wrap;html=1;fillColor=#f5f5f5;strokeColor=#666666;" vertex="1" parent="1">
          <mxGeometry x="209" y="150" width="120" height="60" as="geometry" />
        </mxCell>
        <mxCell id="m9l3W2KCBE9sAPWuqWU2-25" value="Property Listings" style="rounded=1;whiteSpace=wrap;html=1;fillColor=#f5f5f5;strokeColor=#666666;" vertex="1" parent="1">
          <mxGeometry x="209" y="330" width="120" height="60" as="geometry" />
        </mxCell>
        <mxCell id="m9l3W2KCBE9sAPWuqWU2-26" value="Search &amp; Filter" style="rounded=1;whiteSpace=wrap;html=1;fillColor=#f5f5f5;strokeColor=#666666;" vertex="1" parent="1">
          <mxGeometry x="209" y="30" width="120" height="60" as="geometry" />
        </mxCell>
        <mxCell id="m9l3W2KCBE9sAPWuqWU2-27" value="Booking Management" style="rounded=1;whiteSpace=wrap;html=1;fillColor=#f5f5f5;strokeColor=#666666;" vertex="1" parent="1">
          <mxGeometry x="214" y="-60" width="120" height="60" as="geometry" />
        </mxCell>
        <mxCell id="m9l3W2KCBE9sAPWuqWU2-28" value="Payment Integration" style="rounded=1;whiteSpace=wrap;html=1;fillColor=#f5f5f5;strokeColor=#666666;" vertex="1" parent="1">
          <mxGeometry x="560" y="130" width="120" height="60" as="geometry" />
        </mxCell>
        <mxCell id="m9l3W2KCBE9sAPWuqWU2-29" value="Reviews &amp; Ratings" style="rounded=1;whiteSpace=wrap;html=1;fillColor=#f5f5f5;strokeColor=#666666;" vertex="1" parent="1">
          <mxGeometry x="209" y="240" width="120" height="60" as="geometry" />
        </mxCell>
        <mxCell id="m9l3W2KCBE9sAPWuqWU2-30" value="Notifications" style="rounded=1;whiteSpace=wrap;html=1;fillColor=#f5f5f5;strokeColor=#666666;" vertex="1" parent="1">
          <mxGeometry x="740" y="50" width="120" height="60" as="geometry" />
        </mxCell>
        <mxCell id="m9l3W2KCBE9sAPWuqWU2-31" value="Admin Dashboard" style="rounded=1;whiteSpace=wrap;html=1;fillColor=#f5f5f5;strokeColor=#666666;" vertex="1" parent="1">
          <mxGeometry x="209" y="420" width="120" height="60" as="geometry" />
        </mxCell>
        <mxCell id="m9l3W2KCBE9sAPWuqWU2-32" value="Register/Login" style="rounded=0;html=1;exitX=1;exitY=0.5;entryX=0;entryY=0.5;orthogonal=1;" edge="1" parent="1" target="m9l3W2KCBE9sAPWuqWU2-24">
          <mxGeometry relative="1" as="geometry">
            <mxPoint x="34" y="120" as="sourcePoint" />
          </mxGeometry>
        </mxCell>
        <mxCell id="m9l3W2KCBE9sAPWuqWU2-33" value="Search Criteria" style="edgeStyle=orthogonalEdgeStyle;rounded=0;html=1;exitX=1;exitY=0.5;entryX=0;entryY=0.5;noEdgeStyle=1;orthogonal=1;" edge="1" parent="1" target="m9l3W2KCBE9sAPWuqWU2-26">
          <mxGeometry relative="1" as="geometry">
            <mxPoint x="34" y="120" as="sourcePoint" />
            <Array as="points">
              <mxPoint x="197" y="60" />
            </Array>
          </mxGeometry>
        </mxCell>
        <mxCell id="m9l3W2KCBE9sAPWuqWU2-34" value="Booking Request" style="rounded=0;html=1;exitX=1;exitY=0.5;orthogonal=1;" edge="1" parent="1">
          <mxGeometry relative="1" as="geometry">
            <mxPoint x="34" y="120" as="sourcePoint" />
            <mxPoint x="212" y="-30" as="targetPoint" />
          </mxGeometry>
        </mxCell>
        <mxCell id="m9l3W2KCBE9sAPWuqWU2-35" value="Payment Details" style="edgeStyle=orthogonalEdgeStyle;rounded=0;html=1;exitX=1;exitY=0.5;entryX=0;entryY=0.5;noEdgeStyle=1;orthogonal=1;" edge="1" parent="1">
          <mxGeometry relative="1" as="geometry">
            <mxPoint x="36" y="120" as="sourcePoint" />
            <mxPoint x="572" y="160" as="targetPoint" />
            <Array as="points">
              <mxPoint x="88" y="120" />
              <mxPoint x="122" y="120" />
              <mxPoint x="272" y="130" />
              <mxPoint x="362" y="140" />
            </Array>
          </mxGeometry>
        </mxCell>
        <mxCell id="m9l3W2KCBE9sAPWuqWU2-36" value="Submit Review" style="edgeStyle=orthogonalEdgeStyle;rounded=0;html=1;exitX=1;exitY=0.5;entryX=0;entryY=0.5;noEdgeStyle=1;orthogonal=1;" edge="1" parent="1" target="m9l3W2KCBE9sAPWuqWU2-29">
          <mxGeometry relative="1" as="geometry">
            <mxPoint x="34" y="120" as="sourcePoint" />
            <Array as="points">
              <mxPoint x="197" y="257.5" />
            </Array>
          </mxGeometry>
        </mxCell>
        <mxCell id="m9l3W2KCBE9sAPWuqWU2-37" value="Register/Login" style="edgeStyle=orthogonalEdgeStyle;rounded=0;html=1;entryX=0;entryY=0.5;noEdgeStyle=1;orthogonal=1;" edge="1" parent="1" target="m9l3W2KCBE9sAPWuqWU2-24">
          <mxGeometry relative="1" as="geometry">
            <mxPoint x="34" y="290" as="sourcePoint" />
            <Array as="points">
              <mxPoint x="121" y="230" />
              <mxPoint x="197" y="192.5" />
            </Array>
          </mxGeometry>
        </mxCell>
        <mxCell id="m9l3W2KCBE9sAPWuqWU2-38" value="Add/Edit Listing" style="edgeStyle=orthogonalEdgeStyle;rounded=0;html=1;entryX=0;entryY=0.5;noEdgeStyle=1;orthogonal=1;entryDx=0;entryDy=0;" edge="1" parent="1" target="m9l3W2KCBE9sAPWuqWU2-25">
          <mxGeometry relative="1" as="geometry">
            <mxPoint x="32" y="290" as="sourcePoint" />
            <mxPoint x="209" y="395" as="targetPoint" />
            <Array as="points">
              <mxPoint x="189" y="360" />
            </Array>
          </mxGeometry>
        </mxCell>
        <mxCell id="m9l3W2KCBE9sAPWuqWU2-39" value="Respond to Review" style="edgeStyle=orthogonalEdgeStyle;rounded=0;html=1;entryX=0;entryY=0.5;noEdgeStyle=1;orthogonal=1;" edge="1" parent="1" target="m9l3W2KCBE9sAPWuqWU2-29">
          <mxGeometry relative="1" as="geometry">
            <mxPoint x="34" y="290" as="sourcePoint" />
            <Array as="points">
              <mxPoint x="197" y="282.5" />
            </Array>
          </mxGeometry>
        </mxCell>
        <mxCell id="m9l3W2KCBE9sAPWuqWU2-40" value="Manage Entities" style="edgeStyle=orthogonalEdgeStyle;rounded=0;html=1;exitX=1;exitY=0.5;entryX=0;entryY=0.5;noEdgeStyle=1;orthogonal=1;" edge="1" parent="1" target="m9l3W2KCBE9sAPWuqWU2-31">
          <mxGeometry relative="1" as="geometry">
            <mxPoint x="34" y="450" as="sourcePoint" />
            <Array as="points">
              <mxPoint x="121" y="450" />
              <mxPoint x="197" y="450" />
            </Array>
          </mxGeometry>
        </mxCell>
        <mxCell id="m9l3W2KCBE9sAPWuqWU2-41" value="Store/Retrieve User Data" style="edgeStyle=orthogonalEdgeStyle;rounded=0;html=1;exitX=1;exitY=0.5;entryX=0;entryY=0.5;noEdgeStyle=1;orthogonal=1;" edge="1" parent="1" source="m9l3W2KCBE9sAPWuqWU2-24" target="m9l3W2KCBE9sAPWuqWU2-23">
          <mxGeometry relative="1" as="geometry">
            <Array as="points">
              <mxPoint x="403" y="282" />
              <mxPoint x="550" y="285" />
              <mxPoint x="550" y="285" />
              <mxPoint x="662" y="285" />
            </Array>
          </mxGeometry>
        </mxCell>
        <mxCell id="m9l3W2KCBE9sAPWuqWU2-42" value="Store/Retrieve Listings" style="edgeStyle=orthogonalEdgeStyle;rounded=0;html=1;exitX=1;exitY=0.5;entryX=0;entryY=0.5;noEdgeStyle=1;orthogonal=1;" edge="1" parent="1" source="m9l3W2KCBE9sAPWuqWU2-25" target="m9l3W2KCBE9sAPWuqWU2-23">
          <mxGeometry relative="1" as="geometry">
            <Array as="points">
              <mxPoint x="411" y="345" />
              <mxPoint x="550" y="345" />
              <mxPoint x="550" y="345" />
              <mxPoint x="656" y="345" />
            </Array>
          </mxGeometry>
        </mxCell>
        <mxCell id="m9l3W2KCBE9sAPWuqWU2-43" value="Query Listings" style="edgeStyle=orthogonalEdgeStyle;rounded=0;html=1;exitX=1;exitY=0.5;entryX=0;entryY=0.5;noEdgeStyle=1;orthogonal=1;" edge="1" parent="1" source="m9l3W2KCBE9sAPWuqWU2-26" target="m9l3W2KCBE9sAPWuqWU2-23">
          <mxGeometry relative="1" as="geometry">
            <Array as="points">
              <mxPoint x="363" y="109" />
              <mxPoint x="480" y="240" />
              <mxPoint x="550" y="255" />
              <mxPoint x="664" y="255" />
            </Array>
          </mxGeometry>
        </mxCell>
        <mxCell id="m9l3W2KCBE9sAPWuqWU2-44" value="Store/Retrieve Bookings" style="edgeStyle=orthogonalEdgeStyle;rounded=0;html=1;exitX=1;exitY=0.5;entryX=0;entryY=0.5;noEdgeStyle=1;orthogonal=1;" edge="1" parent="1" source="m9l3W2KCBE9sAPWuqWU2-27" target="m9l3W2KCBE9sAPWuqWU2-23">
          <mxGeometry relative="1" as="geometry">
            <Array as="points">
              <mxPoint x="465" y="170" />
              <mxPoint x="560" y="230" />
              <mxPoint x="662" y="230" />
            </Array>
          </mxGeometry>
        </mxCell>
        <mxCell id="m9l3W2KCBE9sAPWuqWU2-45" value="Store Transactions" style="edgeStyle=orthogonalEdgeStyle;rounded=0;html=1;exitX=1;exitY=0.5;entryX=0;entryY=0.5;noEdgeStyle=1;orthogonal=1;" edge="1" parent="1" source="m9l3W2KCBE9sAPWuqWU2-28" target="m9l3W2KCBE9sAPWuqWU2-23">
          <mxGeometry relative="1" as="geometry">
            <Array as="points">
              <mxPoint x="730" y="210" />
            </Array>
          </mxGeometry>
        </mxCell>
        <mxCell id="m9l3W2KCBE9sAPWuqWU2-46" value="Store/Retrieve Reviews" style="edgeStyle=orthogonalEdgeStyle;rounded=0;html=1;exitX=1;exitY=0.5;entryX=0;entryY=0.5;noEdgeStyle=1;orthogonal=1;" edge="1" parent="1" source="m9l3W2KCBE9sAPWuqWU2-29" target="m9l3W2KCBE9sAPWuqWU2-23">
          <mxGeometry relative="1" as="geometry">
            <Array as="points">
              <mxPoint x="408" y="315" />
              <mxPoint x="550" y="315" />
              <mxPoint x="550" y="315" />
              <mxPoint x="680" y="315" />
            </Array>
          </mxGeometry>
        </mxCell>
        <mxCell id="m9l3W2KCBE9sAPWuqWU2-47" value="Booking Request" style="edgeStyle=orthogonalEdgeStyle;rounded=0;html=1;exitX=1;exitY=0.5;entryX=0;entryY=0.5;orthogonal=1;entryDx=0;entryDy=0;" edge="1" parent="1" source="m9l3W2KCBE9sAPWuqWU2-26" target="m9l3W2KCBE9sAPWuqWU2-27">
          <mxGeometry relative="1" as="geometry">
            <mxPoint x="209" y="-30" as="targetPoint" />
            <Array as="points">
              <mxPoint x="339" y="60" />
              <mxPoint x="339" y="15" />
              <mxPoint x="189" y="15" />
              <mxPoint x="189" y="-30" />
            </Array>
          </mxGeometry>
        </mxCell>
        <mxCell id="m9l3W2KCBE9sAPWuqWU2-48" value="Booking Confirmation" style="rounded=0;html=1;exitX=1;exitY=0.5;entryX=0;entryY=0.5;orthogonal=1;" edge="1" parent="1" source="m9l3W2KCBE9sAPWuqWU2-27" target="m9l3W2KCBE9sAPWuqWU2-30">
          <mxGeometry relative="1" as="geometry" />
        </mxCell>
        <mxCell id="m9l3W2KCBE9sAPWuqWU2-49" value="Payment Details" style="edgeStyle=orthogonalEdgeStyle;rounded=0;html=1;exitX=1;exitY=0.5;entryX=0;entryY=0.5;noEdgeStyle=1;orthogonal=1;" edge="1" parent="1" source="m9l3W2KCBE9sAPWuqWU2-27" target="m9l3W2KCBE9sAPWuqWU2-28">
          <mxGeometry relative="1" as="geometry">
            <Array as="points" />
          </mxGeometry>
        </mxCell>
        <mxCell id="m9l3W2KCBE9sAPWuqWU2-50" value="Payment Status" style="rounded=0;html=1;exitX=1;exitY=0.5;entryX=0;entryY=0.5;orthogonal=1;entryDx=0;entryDy=0;" edge="1" parent="1" source="m9l3W2KCBE9sAPWuqWU2-28" target="m9l3W2KCBE9sAPWuqWU2-30">
          <mxGeometry relative="1" as="geometry">
            <mxPoint x="810" y="135" as="targetPoint" />
          </mxGeometry>
        </mxCell>
        <mxCell id="m9l3W2KCBE9sAPWuqWU2-51" value="Manage Users/Listings/Bookings" style="edgeStyle=orthogonalEdgeStyle;rounded=0;html=1;exitX=1;exitY=0.5;entryX=0;entryY=0.5;noEdgeStyle=1;orthogonal=1;" edge="1" parent="1" source="m9l3W2KCBE9sAPWuqWU2-31" target="m9l3W2KCBE9sAPWuqWU2-23">
          <mxGeometry relative="1" as="geometry">
            <Array as="points">
              <mxPoint x="422" y="413" />
              <mxPoint x="550" y="412.5" />
              <mxPoint x="550" y="412.5" />
              <mxPoint x="660" y="413" />
            </Array>
          </mxGeometry>
        </mxCell>
      </root>
    </mxGraphModel>
  </diagram>
</mxfile>
